<?xml version="1.0" encoding="UTF-8"?>
<svg id="Pink_J" data-name="Pink J" xmlns="http://www.w3.org/2000/svg" viewBox="0 0 288 288">
  <defs>
    <style>
      .cls-1 {
        fill: #d76481;
      }
    </style>
  </defs>
  <path class="cls-1" d="M153.74,131.37c-13.18,8.58-35.93,15.97-44.49-2.45-5.96-16.5,15.54-29.58,27.82-35.77,1.65-.84,3.56-1.62,5.11-2.36,3.4-1.71,6.7-3.81,9.69-6.09,4.43-3.5,8.51-7.57,9.8-13.12.52-2.14.45-4.42-.02-6.58-.81-3.79-4.91-6.72-8.8-5.19-7.05,3.32-8.84,15.45-9.13,22.63-.52,12.2,4.82,23.57,9.53,34.52,9.55,21.95,23.37,44.77,23.92,69.33.64,20.68-15.48,40.79-37.94,39.65-7.08-.3-14.3-2.8-19.97-7.73-8.56-7.24-11.44-19.6-8.76-30.15,3.77-15.93,15.32-28.32,27.04-38.84,17.99-16.51,40.46-27.66,55.19-47.44,11.38-14.75,15.65-33.78,2.45-48.85-12.64-12.74-31.1-18.28-48.79-18.04-48.26-1.46-92.16,32.86-102.97,79.73-11.35,45.96,12.72,95.39,55.16,115.93,43.14,21.72,97.69,7.91,126.76-30.39,14.76-18.99,22.49-43.26,21.42-67.36-.5-12.11-3.2-24.11-7.83-35.32,26.2,59.26-7.88,130.01-70.38,147.22-43.04,12.39-91.78-5.12-117.68-41.59C-2.98,127.8,54.66,25.84,146.48,30.92c12.33.31,24.73,3.48,35.64,9.3,11.92,6.13,20.47,14.17,22.73,27.94,3.35,24.93-20.43,45.09-38.09,58.97-14.27,11.06-27.11,24.24-36.54,39.56-7.45,12.56-15.89,31.53-3.58,43.19,7.29,6.59,19.34,7.22,28.04,2.57,7.13-3.7,12.35-10.63,14.77-18.21,7.35-23.92-7.92-54.73-17.12-76.87-3.54-8.43-7.29-16.8-9.41-25.75-1.25-6.07-1.45-12.3-.69-18.46.9-6.3,2.83-13.59,8.82-17.06,6.63-3.79,15.46.13,18.37,6.99,7.53,16.89-10.54,31.26-24.32,37.15-9.51,3.81-26.86,11.57-29.67,22.02-.62,2.51.06,5.12,1.32,7.35,7.33,12.6,26.28,6.61,37.01,1.75h0Z"/>
</svg>