<?xml version="1.0" encoding="UTF-8"?>
<svg id="Side_Pink" data-name="Side Pink" xmlns="http://www.w3.org/2000/svg" viewBox="0 0 288 107.01">
  <defs>
    <style>
      .cls-1 {
        fill: #d76481;
      }
    </style>
  </defs>
  <path class="cls-1" d="M55.55,50.42c-3.34,2.18-9.11,4.05-11.28-.62-1.51-4.18,3.94-7.5,7.05-9.07.42-.21.9-.41,1.29-.6.86-.43,1.7-.97,2.46-1.55,1.12-.89,2.16-1.92,2.48-3.33.13-.54.11-1.12,0-1.67-.21-.96-1.25-1.7-2.23-1.32-1.79.84-2.24,3.92-2.31,5.74-.13,3.09,1.22,5.98,2.42,8.76,2.42,5.57,5.93,11.35,6.07,17.58.16,5.24-3.92,10.35-9.62,10.06-1.8-.08-3.63-.71-5.06-1.96-2.17-1.83-2.9-4.97-2.22-7.65.96-4.04,3.89-7.18,6.86-9.85,4.56-4.19,10.26-7.02,14-12.03,2.89-3.74,3.97-8.57.62-12.39-3.21-3.23-7.89-4.64-12.37-4.58-12.24-.37-23.37,8.33-26.11,20.22-2.88,11.66,3.23,24.19,13.99,29.4,10.94,5.51,24.78,2,32.15-7.71,3.74-4.82,5.7-10.97,5.43-17.08-.13-3.07-.81-6.12-1.99-8.96,6.65,15.03-2,32.97-17.85,37.34-10.91,3.14-23.28-1.3-29.85-10.55-13.66-19.1.96-44.96,24.25-43.67,3.13.08,6.27.88,9.04,2.36,3.02,1.55,5.19,3.59,5.76,7.09.85,6.32-5.18,11.43-9.66,14.96-3.62,2.8-6.87,6.15-9.27,10.03-1.89,3.18-4.03,8-.91,10.95,1.85,1.67,4.9,1.83,7.11.65,1.81-.94,3.13-2.7,3.75-4.62,1.86-6.07-2.01-13.88-4.34-19.49-.9-2.14-1.85-4.26-2.39-6.53-.32-1.54-.37-3.12-.18-4.68.23-1.6.72-3.45,2.24-4.33,1.68-.96,3.92.03,4.66,1.77,1.91,4.28-2.67,7.93-6.17,9.42-2.41.97-6.81,2.93-7.53,5.58-.16.64.02,1.3.33,1.86,1.86,3.2,6.66,1.68,9.39.44h0Z"/>
  <g>
    <g>
      <path class="cls-1" d="M134.76,66.91c0-2.83,1.94-4.72,4.77-4.72,1.18,0,2.19.37,2.68.37.37,0,.51-.17.51-.56v-.32s0-.03.03-.03.03,0,.03.03l.17,2.89s-.01.03-.03.03c-.01,0-.03,0-.03-.03-.55-1.24-1.65-2.32-3.42-2.32s-3.52,1.47-3.52,4.09c0,2.48,1.6,4.22,3.75,4.22s3.46-1.44,3.46-3.18c0-.53-.17-.71-.17-.85,0-.06.03-.1.08-.1.18,0,.2.47.2.76,0,1.97-1.5,4.24-4.27,4.24-2.46,0-4.24-1.96-4.24-4.5Z"/>
      <path class="cls-1" d="M144.56,71.28s.01-.03.03-.03h.08c.44,0,.58-.32.58-.9v-7.09c0-.58-.15-.9-.58-.9h-.08s-.03-.01-.03-.03.01-.03.03-.03h1.26c.41,0,1.29-.03,1.71-.03,1.66,0,3.51.51,3.51,2.58,0,1.41-.85,2.29-2.01,2.66l2.15,2.66c.37.46.89,1.1,1.23,1.1h.01s.03.01.03.03-.01.03-.03.03h-1.93s-.03,0-.04-.02l-2.77-3.61h-.93c-.19,0-.32,0-.32.26v2.4c0,.58.15.9.57.9h.08s.03.01.03.03-.01.03-.03.03h-2.53s-.03-.01-.03-.03ZM149.77,64.92c0-1.62-.87-2.6-2.14-2.6h-.21c-.71,0-.95.3-.95.84v4.16c0,.26.12.3.33.3h.8c1.28,0,2.17-1,2.17-2.7Z"/>
      <path class="cls-1" d="M159.06,71.79v-.06c0-.28-.18-.42-.53-.42h-4.71s-.03-.01-.03-.03.01-.03.03-.03h.08c.44,0,.58-.32.58-.9v-7.09c0-.58-.15-.9-.58-.9h-.08s-.03-.01-.03-.03.01-.03.03-.03h4.71c.4,0,.51-.17.51-.42,0-.07,0-.1,0-.19,0-.02,0-.03.03-.03.02,0,.03,0,.03.03l.18,2.89s-.01.03-.03.03c-.01,0-.03,0-.03-.03-.36-1.25-.95-2.23-2.13-2.23h-.73c-.51,0-.66.32-.66.9v2.56c0,.26.12.28.28.28h.96c.78,0,1.35-.58,1.35-1.28v-.06s0-.03.03-.03c.02,0,.03.01.03.03v2.74s0,.03-.03.03-.03-.01-.03-.03v-.06c0-.7-.57-1.28-1.35-1.28h-.96c-.17,0-.28,0-.28.28v3.91c0,.58.15.9.66.9h.73c1.32,0,1.85-1.16,2.14-2.44,0-.03.01-.03.03-.03s.03,0,.03.03l-.17,2.98s-.01.03-.03.03c-.03,0-.03-.01-.03-.03Z"/>
      <path class="cls-1" d="M160.59,71.28s.01-.03.03-.03h.03c.37,0,.91-.51,1.55-1.98l3.09-7.06s.01-.03.05-.03.04.01.05.03l3.88,7.92c.35.7.7,1.11,1.14,1.11h.03s.03.01.03.03-.01.03-.03.03h-2.82s-.03-.01-.03-.03.01-.03.03-.03h.03c.35,0,.51-.12.51-.36,0-.15-.06-.35-.17-.58l-1.4-2.89c-.14-.28-.29-.32-.46-.32h-2.62c-.22,0-.33.12-.44.37l-.69,1.58c-.21.48-.3.89-.3,1.21,0,.67.37.99.84.99h.06s.03.01.03.03-.01.03-.03.03h-2.36s-.03-.01-.03-.03ZM166.3,66.91s-.01-.11-.06-.2l-1.49-3.06-1.37,3.11c-.03.06-.04.12-.04.16,0,.09.08.11.19.11h2.57c.11,0,.2-.02.2-.12Z"/>
      <path class="cls-1" d="M172,71.28s.01-.03.03-.03h.08c.44,0,.58-.32.58-.9v-7.09c0-.67-.17-.9-.51-.9h-.16c-.8,0-1.49,1.07-1.8,2.23,0,.02-.02.03-.04.03s-.03,0-.03-.03l.18-2.89s.01-.03.03-.03c.03,0,.03.01.03.03v.18c0,.26.12.42.48.42h4.83c.35,0,.49-.17.49-.42v-.18s0-.03.03-.03c.02,0,.03,0,.03.03l.18,2.89s-.01.03-.03.03-.03,0-.03-.03c-.33-1.21-.99-2.23-1.8-2.23h-.17c-.33,0-.49.23-.49.9v7.09c0,.58.15.9.57.9h.08s.03.01.03.03-.01.03-.03.03h-2.53s-.03-.01-.03-.03Z"/>
      <path class="cls-1" d="M177.74,71.28s.01-.03.03-.03h.08c.44,0,.58-.32.58-.9v-7.09c0-.58-.15-.9-.58-.9h-.08s-.03-.01-.03-.03.01-.03.03-.03h2.54s.03.01.03.03-.01.03-.03.03h-.08c-.44,0-.58.32-.58.9v7.09c0,.58.15.9.58.9h.08s.03.01.03.03-.01.03-.03.03h-2.54s-.03-.01-.03-.03Z"/>
      <path class="cls-1" d="M186.73,71.38l-3.87-7.92c-.35-.71-.71-1.11-1.15-1.11h-.03s-.03-.01-.03-.03.01-.03.03-.03h2.82s.03.01.03.03-.01.03-.03.03h-.03c-.34,0-.5.12-.5.36,0,.15.06.35.17.58l3.24,6.67,2.37-5.41c.22-.49.3-.89.3-1.21,0-.67-.37-.99-.83-.99h-.07s-.03-.01-.03-.03.01-.03.03-.03h2.36s.03.01.03.03-.01.03-.03.03h-.03c-.37,0-.91.51-1.55,1.98l-3.09,7.06s-.01.03-.05.03-.04-.01-.05-.03Z"/>
      <path class="cls-1" d="M198.1,71.79v-.06c0-.28-.18-.42-.53-.42h-4.71s-.03-.01-.03-.03.01-.03.03-.03h.08c.44,0,.58-.32.58-.9v-7.09c0-.58-.15-.9-.58-.9h-.08s-.03-.01-.03-.03.01-.03.03-.03h4.71c.4,0,.51-.17.51-.42,0-.07,0-.1,0-.19,0-.02,0-.03.03-.03.02,0,.03,0,.03.03l.18,2.89s-.01.03-.03.03c-.01,0-.03,0-.03-.03-.36-1.25-.95-2.23-2.13-2.23h-.73c-.51,0-.66.32-.66.9v2.56c0,.26.12.28.28.28h.96c.78,0,1.35-.58,1.35-1.28v-.06s0-.03.03-.03c.02,0,.03.01.03.03v2.74s0,.03-.03.03-.03-.01-.03-.03v-.06c0-.7-.57-1.28-1.35-1.28h-.96c-.17,0-.28,0-.28.28v3.91c0,.58.15.9.66.9h.73c1.32,0,1.85-1.16,2.14-2.44,0-.03.01-.03.03-.03s.03,0,.03.03l-.17,2.98s-.01.03-.03.03c-.03,0-.03-.01-.03-.03Z"/>
    </g>
    <g>
      <g>
        <path class="cls-1" d="M109.16,53.42v-.09c0-.47-.3-.68-.88-.68h-7.74s-.06-.02-.06-.06.02-.06.06-.06h.13c.72,0,.96-.52.96-1.48v-11.65c0-.96-.24-1.48-.96-1.48h-.13s-.06-.02-.06-.06.02-.06.06-.06h7.74c.65,0,.84-.27.84-.68,0-.11,0-.17-.01-.31,0-.03.01-.06.06-.06.03,0,.06.01.06.06l.3,4.75s-.02.06-.06.06c-.02,0-.05-.01-.06-.05-.59-2.05-1.56-3.66-3.5-3.66h-1.2c-.84,0-1.08.52-1.08,1.48v4.2c0,.42.19.46.47.46h1.57c1.29,0,2.22-.96,2.22-2.11v-.09s.01-.06.06-.06c.03,0,.06.02.06.06v4.5s-.01.06-.06.06-.06-.02-.06-.06v-.09c0-1.15-.93-2.1-2.22-2.1h-1.57c-.27,0-.47.01-.47.46v6.42c0,.96.24,1.48,1.08,1.48h1.2c2.17,0,3.03-1.9,3.52-4.01.01-.05.02-.06.06-.06s.06.01.06.06l-.27,4.9s-.02.06-.06.06c-.05,0-.06-.02-.06-.06Z"/>
        <path class="cls-1" d="M120.08,52.74l-7.23-12.9v9.57c0,2.3,1.11,3.12,2.19,3.12h.09s.06.02.06.06-.02.06-.06.06h-4.24s-.06-.02-.06-.06.02-.06.06-.06h.05c.89,0,1.8-1.03,1.8-2.83v-9.46c0-1.29-.5-2.32-1.44-2.32h-.03s-.06-.02-.06-.06.02-.06.06-.06h2.69s.05,0,.07.03l6.13,11.13v-7.93c0-2.3-1.11-3.12-2.19-3.12h-.09s-.06-.02-.06-.06.02-.06.06-.06h4.24s.06.02.06.06-.02.06-.06.06h-.06c-.88,0-1.79,1.03-1.79,2.83v12s-.02.06-.07.06c-.06,0-.09-.01-.13-.07Z"/>
        <path class="cls-1" d="M130.28,52.74l-7.23-12.9v9.57c0,2.3,1.11,3.12,2.19,3.12h.09s.06.02.06.06-.02.06-.06.06h-4.24s-.06-.02-.06-.06.02-.06.06-.06h.05c.89,0,1.8-1.03,1.8-2.83v-9.46c0-1.29-.5-2.32-1.44-2.32h-.03s-.06-.02-.06-.06.02-.06.06-.06h2.69s.05,0,.07.03l6.13,11.13v-7.93c0-2.3-1.11-3.12-2.19-3.12h-.09s-.06-.02-.06-.06.02-.06.06-.06h4.24s.06.02.06.06-.02.06-.06.06h-.06c-.88,0-1.79,1.03-1.79,2.83v12s-.02.06-.07.06c-.06,0-.09-.01-.13-.07Z"/>
        <path class="cls-1" d="M133.67,52.59s.02-.06.06-.06h.12c.72,0,.96-.52.96-1.48v-11.65c0-.96-.24-1.48-.96-1.48h-.12s-.06-.02-.06-.06.02-.06.06-.06h4.17s.06.02.06.06-.02.06-.06.06h-.13c-.72,0-.96.52-.96,1.48v11.65c0,.96.24,1.48.96,1.48h.13s.06.02.06.06-.02.06-.06.06h-4.17s-.06-.02-.06-.06Z"/>
        <path class="cls-1" d="M139.25,45.41c0-4.65,3.19-7.76,7.84-7.76,1.94,0,3.59.62,4.4.62.6,0,.84-.28.84-.92v-.53s.01-.06.05-.06.06.01.06.06l.29,4.75s-.02.06-.06.06c-.02,0-.05-.01-.06-.05-.9-2.04-2.71-3.82-5.62-3.82s-5.79,2.42-5.79,6.71c0,4.07,2.63,6.93,6.15,6.93s5.69-2.36,5.69-5.23c0-.87-.29-1.16-.29-1.4,0-.1.06-.17.14-.17.3,0,.33.77.33,1.24,0,3.24-2.46,6.96-7.01,6.96-4.05,0-6.96-3.21-6.96-7.4Z"/>
        <path class="cls-1" d="M152.89,52.59s.02-.06.06-.06h.05c.6,0,1.49-.83,2.55-3.25l5.08-11.59s.02-.05.08-.05.07.02.08.05l6.37,13.02c.57,1.15,1.15,1.82,1.88,1.82h.06s.06.02.06.06-.02.06-.06.06h-4.64s-.06-.02-.06-.06.02-.06.06-.06h.05c.57,0,.83-.21.83-.59,0-.24-.1-.57-.28-.95l-2.3-4.74c-.23-.46-.48-.52-.75-.52h-4.31c-.35,0-.55.19-.73.6l-1.13,2.6c-.34.79-.49,1.46-.49,1.98,0,1.09.6,1.62,1.38,1.62h.1s.06.02.06.06-.02.06-.06.06h-3.87s-.06-.02-.06-.06ZM162.27,45.41c0-.07-.02-.18-.1-.33l-2.45-5.03-2.25,5.12c-.05.1-.07.19-.07.26,0,.15.14.18.32.18h4.22c.18,0,.33-.03.33-.2Z"/>
        <path class="cls-1" d="M99.19,35.25s-.02.06-.06.06h-.14c-.7,0-.93.52-.93,1.48v12.62c0,2.9-1.87,4.42-4.1,4.42-2.07,0-3.6-1.42-3.6-3.48,0-.56.15-1.06.39-1.47.09-.15.19-.29.3-.41.15-.11.34-.16.57-.08.88.27.39,1.34-.27,2.05-.05.04-.09.08-.12.12,0,0,0,.01-.01.02-.15.19-.22.45-.22.82,0,1.09.88,2.14,2.3,2.14s2.76-1.04,2.76-3.42v-13.34c0-.97-.31-1.48-1.31-1.48h-.32s-.06-.02-.06-.06.02-.06.06-.06h4.71s.06.02.06.06Z"/>
      </g>
      <g>
        <path class="cls-1" d="M186.39,45.42c0-4.65,3.48-7.77,7.84-7.77,4.73,0,7.77,3.01,7.77,7.4,0,4.64-3.48,7.76-7.85,7.76-4.73,0-7.76-3.01-7.76-7.39ZM199.78,45.23c0-4.49-2.4-7.47-5.57-7.47s-5.6,2.94-5.6,7.48,2.39,7.45,5.57,7.45,5.6-2.94,5.6-7.46Z"/>
        <path class="cls-1" d="M213.31,48.08c0,2.75-2.21,4.71-5.16,4.71-2.7,0-4.49-1.7-4.8-3.74-.03-.22-.05-.44-.05-.66,0-.57.11-1.1.3-1.55.07-.17.15-.32.25-.47.19-.24.45-.36.81-.26.98.28.47,1.43-.24,2.2-.25.28-.37.66-.37,1.19,0,1.69,1.63,3.1,3.68,3.1,2.23,0,3.82-1.54,3.82-3.61s-.99-2.87-2.76-3.99c-2.36-1.48-3.81-2.59-3.81-4.52,0-1.55,1.21-2.85,3.13-2.85,1.32,0,2.04.56,2.69.56.47,0,.65-.25.65-.84,0-.22-.01-.37-.02-.55,0-.03.01-.06.06-.06.03,0,.06.01.06.06l.29,4.75s-.02.06-.06.06-.05-.01-.06-.05c-.57-1.8-1.97-3.82-3.56-3.82-.94,0-1.63.68-1.63,1.78,0,1.48,1.08,2.36,3.17,3.65,2.02,1.22,3.64,2.52,3.64,4.91Z"/>
        <path class="cls-1" d="M223.27,53.42v-.09c0-.47-.3-.68-.88-.68h-7.74s-.06-.02-.06-.06.02-.06.06-.06h.12c.72,0,.96-.52.96-1.48v-11.65c0-.96-.24-1.48-.96-1.48h-.12s-.06-.02-.06-.06.02-.06.06-.06h7.74c.65,0,.84-.27.84-.68,0-.11,0-.17-.01-.31,0-.03.01-.06.06-.06.03,0,.06.01.06.06l.3,4.75s-.02.06-.06.06c-.02,0-.05-.01-.06-.05-.59-2.05-1.56-3.66-3.5-3.66h-1.2c-.84,0-1.08.52-1.08,1.48v4.2c0,.42.19.46.47.46h1.57c1.29,0,2.22-.96,2.22-2.11v-.09s.01-.06.06-.06c.03,0,.06.02.06.06v4.5s-.01.06-.06.06-.06-.02-.06-.06v-.09c0-1.15-.93-2.1-2.22-2.1h-1.57c-.27,0-.47.01-.47.46v6.42c0,.96.24,1.48,1.08,1.48h1.2c2.17,0,3.03-1.9,3.52-4.01.01-.05.02-.06.06-.06s.06.01.06.06l-.27,4.9s-.02.06-.06.06c-.05,0-.06-.02-.06-.06Z"/>
        <path class="cls-1" d="M224.95,52.59s.02-.06.06-.06h.13c.72,0,.96-.52.96-1.48v-11.65c0-.96-.24-1.48-.96-1.48h-.13s-.06-.02-.06-.06.02-.06.06-.06h2.07c.67,0,2.12-.06,2.82-.06,2.75,0,5.79.88,5.79,4.38,0,3.21-2.28,4.85-5.09,4.85-.64,0-1.17-.11-1.54-.25-.09-.03-.09-.06-.08-.09.01-.02.03-.03.07-.02.38.1.73.15,1.05.15,2.14,0,3.45-1.64,3.45-4.49s-1.44-4.41-3.54-4.41h-.34c-1.17,0-1.56.49-1.56,1.38v11.81c0,.96.24,1.48.93,1.48h.12s.06.02.06.06-.02.06-.06.06h-4.15s-.06-.02-.06-.06Z"/>
        <path class="cls-1" d="M236.97,52.59s.02-.06.06-.06h.13c.72,0,.96-.52.96-1.48v-11.65c0-.96-.24-1.48-.96-1.48h-.13s-.06-.02-.06-.06.02-.06.06-.06h4.15s.06.02.06.06-.02.06-.06.06h-.12c-.7,0-.93.52-.93,1.48v4.19c0,.43.21.47.48.47h3.93c.29,0,.49-.03.49-.47v-4.19c0-.96-.24-1.48-.96-1.48h-.13s-.06-.02-.06-.06.02-.06.06-.06h4.15s.06.02.06.06-.02.06-.06.06h-.12c-.7,0-.93.52-.93,1.48v11.65c0,.96.24,1.48.93,1.48h.12s.06.02.06.06-.02.06-.06.06h-4.15s-.06-.02-.06-.06.02-.06.06-.06h.13c.72,0,.96-.52.96-1.48v-6.42c0-.44-.21-.46-.49-.46h-3.93c-.27,0-.48.01-.48.46v6.42c0,.96.24,1.48.93,1.48h.12s.06.02.06.06-.02.06-.06.06h-4.15s-.06-.02-.06-.06Z"/>
        <path class="cls-1" d="M185.1,35.25s-.02.06-.06.06h-.14c-.7,0-.93.52-.93,1.48v12.62c0,2.9-1.87,4.42-4.1,4.42-2.07,0-3.6-1.42-3.6-3.48,0-.56.15-1.06.39-1.47.09-.15.19-.29.3-.41.15-.11.34-.16.57-.08.88.27.39,1.34-.27,2.05-.05.04-.09.08-.12.12,0,0,0,.01-.01.02-.15.19-.22.45-.22.82,0,1.09.88,2.14,2.3,2.14s2.76-1.04,2.76-3.42v-13.34c0-.97-.31-1.48-1.31-1.48h-.32s-.06-.02-.06-.06.02-.06.06-.06h4.71s.06.02.06.06Z"/>
      </g>
    </g>
  </g>
</svg>