<?xml version="1.0" encoding="UTF-8"?>
<svg id="PINK" xmlns="http://www.w3.org/2000/svg" viewBox="0 0 288 288">
  <defs>
    <style>
      .cls-1 {
        fill: #d76481;
      }
    </style>
  </defs>
  <g>
    <path class="cls-1" d="M104.6,198.21c0-3.51,2.41-5.86,5.92-5.86,1.46,0,2.71.46,3.32.46.46,0,.64-.21.64-.7v-.4s0-.04.03-.04.04,0,.04.04l.21,3.59s-.02.04-.04.04c-.02,0-.03,0-.04-.03-.68-1.54-2.05-2.88-4.24-2.88s-4.37,1.82-4.37,5.06c0,3.07,1.99,5.23,4.64,5.23s4.29-1.78,4.29-3.95c0-.65-.21-.88-.21-1.06,0-.08.04-.13.1-.13.22,0,.25.58.25.94,0,2.44-1.86,5.25-5.29,5.25-3.05,0-5.25-2.42-5.25-5.58Z"/>
    <path class="cls-1" d="M116.74,203.62s.02-.04.04-.04h.09c.54,0,.72-.4.72-1.12v-8.79c0-.72-.18-1.12-.72-1.12h-.09s-.04-.02-.04-.04.02-.04.04-.04h1.56c.51,0,1.6-.04,2.12-.04,2.06,0,4.35.64,4.35,3.2,0,1.75-1.05,2.84-2.49,3.29l2.67,3.3c.46.58,1.1,1.36,1.52,1.36h.02s.04.02.04.04-.02.04-.04.04h-2.39s-.03,0-.05-.03l-3.43-4.47h-1.15c-.24,0-.4,0-.4.32v2.98c0,.72.18,1.12.71,1.12h.09s.04.02.04.04-.02.04-.04.04h-3.13s-.04-.02-.04-.04ZM123.21,195.74c0-2.01-1.08-3.22-2.66-3.22h-.26c-.89,0-1.18.37-1.18,1.04v5.16c0,.33.15.37.4.37h1c1.58,0,2.69-1.24,2.69-3.34Z"/>
    <path class="cls-1" d="M134.72,204.25v-.07c0-.35-.22-.52-.66-.52h-5.84s-.04-.02-.04-.04.02-.04.04-.04h.09c.54,0,.72-.4.72-1.12v-8.79c0-.72-.18-1.12-.72-1.12h-.09s-.04-.02-.04-.04.02-.04.04-.04h5.84c.49,0,.64-.21.64-.52,0-.09,0-.13,0-.23,0-.03,0-.04.04-.04.03,0,.04,0,.04.04l.22,3.59s-.02.04-.04.04c-.02,0-.03,0-.04-.03-.45-1.55-1.18-2.76-2.64-2.76h-.9c-.64,0-.82.4-.82,1.12v3.17c0,.32.15.34.35.34h1.19c.97,0,1.68-.72,1.68-1.59v-.07s0-.04.04-.04c.03,0,.04.02.04.04v3.4s0,.04-.04.04-.04-.02-.04-.04v-.07c0-.87-.71-1.58-1.68-1.58h-1.19c-.21,0-.35,0-.35.34v4.84c0,.72.18,1.12.82,1.12h.9c1.63,0,2.29-1.44,2.66-3.03,0-.03.02-.04.04-.04s.04,0,.04.04l-.21,3.7s-.02.04-.04.04c-.03,0-.04-.02-.04-.04Z"/>
    <path class="cls-1" d="M136.61,203.62s.02-.04.04-.04h.03c.46,0,1.13-.63,1.93-2.45l3.83-8.74s.02-.03.06-.03.05.02.06.03l4.81,9.82c.43.87.87,1.38,1.42,1.38h.04s.04.02.04.04-.02.04-.04.04h-3.5s-.04-.02-.04-.04.02-.04.04-.04h.03c.43,0,.63-.15.63-.45,0-.18-.08-.43-.21-.71l-1.74-3.58c-.17-.34-.36-.4-.57-.4h-3.25c-.27,0-.41.15-.55.46l-.85,1.96c-.26.59-.37,1.1-.37,1.5,0,.83.46,1.22,1.04,1.22h.08s.04.02.04.04-.02.04-.04.04h-2.92s-.04-.02-.04-.04ZM143.69,198.21c0-.05-.02-.14-.08-.25l-1.85-3.79-1.69,3.86c-.03.08-.05.15-.05.2,0,.11.1.14.24.14h3.18c.14,0,.25-.03.25-.15Z"/>
    <path class="cls-1" d="M150.75,203.62s.02-.04.04-.04h.09c.54,0,.72-.4.72-1.12v-8.79c0-.83-.21-1.12-.63-1.12h-.2c-1,0-1.85,1.32-2.23,2.76,0,.03-.03.03-.05.03s-.03,0-.03-.04l.22-3.59s.02-.04.04-.04c.03,0,.04.02.04.04v.22c0,.32.15.52.59.52h5.98c.44,0,.6-.21.6-.52v-.22s0-.04.03-.04c.03,0,.04,0,.04.04l.22,3.59s-.02.04-.04.04-.03,0-.04-.03c-.41-1.5-1.23-2.76-2.23-2.76h-.21c-.41,0-.61.28-.61,1.12v8.79c0,.72.18,1.12.71,1.12h.09s.04.02.04.04-.02.04-.04.04h-3.13s-.04-.02-.04-.04Z"/>
    <path class="cls-1" d="M157.86,203.62s.02-.04.04-.04h.09c.54,0,.72-.4.72-1.12v-8.79c0-.72-.18-1.12-.72-1.12h-.09s-.04-.02-.04-.04.02-.04.04-.04h3.15s.04.02.04.04-.02.04-.04.04h-.09c-.54,0-.72.4-.72,1.12v8.79c0,.72.18,1.12.72,1.12h.09s.04.02.04.04-.02.04-.04.04h-3.15s-.04-.02-.04-.04Z"/>
    <path class="cls-1" d="M169.01,203.75l-4.8-9.82c-.44-.88-.88-1.38-1.43-1.38h-.04s-.04-.02-.04-.04.02-.04.04-.04h3.5s.04.02.04.04-.02.04-.04.04h-.03c-.42,0-.62.15-.62.45,0,.18.08.43.21.71l4.02,8.26,2.93-6.71c.27-.6.37-1.1.37-1.5,0-.83-.46-1.22-1.03-1.22h-.09s-.04-.02-.04-.04.02-.04.04-.04h2.92s.04.02.04.04-.02.04-.04.04h-.03c-.46,0-1.13.63-1.93,2.45l-3.83,8.74s-.02.03-.06.03-.05-.02-.06-.03Z"/>
    <path class="cls-1" d="M183.11,204.25v-.07c0-.35-.22-.52-.66-.52h-5.84s-.04-.02-.04-.04.02-.04.04-.04h.09c.54,0,.72-.4.72-1.12v-8.79c0-.72-.18-1.12-.72-1.12h-.09s-.04-.02-.04-.04.02-.04.04-.04h5.84c.49,0,.64-.21.64-.52,0-.09,0-.13,0-.23,0-.03,0-.04.04-.04.03,0,.04,0,.04.04l.22,3.59s-.02.04-.04.04c-.02,0-.03,0-.04-.03-.45-1.55-1.18-2.76-2.64-2.76h-.9c-.64,0-.82.4-.82,1.12v3.17c0,.32.15.34.35.34h1.19c.97,0,1.68-.72,1.68-1.59v-.07s0-.04.04-.04c.03,0,.04.02.04.04v3.4s0,.04-.04.04-.04-.02-.04-.04v-.07c0-.87-.71-1.58-1.68-1.58h-1.19c-.21,0-.35,0-.35.34v4.84c0,.72.18,1.12.82,1.12h.9c1.63,0,2.29-1.44,2.66-3.03,0-.03.02-.04.04-.04s.04,0,.04.04l-.21,3.7s-.02.04-.04.04c-.03,0-.04-.02-.04-.04Z"/>
  </g>
  <path class="cls-1" d="M148.48,109.85c-4,2.6-10.9,4.84-13.49-.74-1.81-5,4.71-8.97,8.44-10.85.5-.25,1.08-.49,1.55-.71,1.03-.52,2.03-1.16,2.94-1.85,1.34-1.06,2.58-2.3,2.97-3.98.16-.65.14-1.34,0-2-.25-1.15-1.49-2.04-2.67-1.57-2.14,1.01-2.68,4.69-2.77,6.87-.16,3.7,1.46,7.15,2.89,10.47,2.9,6.66,7.09,13.58,7.25,21.03.19,6.27-4.69,12.37-11.51,12.03-2.15-.09-4.34-.85-6.06-2.35-2.6-2.19-3.47-5.95-2.66-9.14,1.15-4.83,4.65-8.59,8.2-11.78,5.46-5.01,12.27-8.39,16.74-14.39,3.45-4.47,4.75-10.25.74-14.82-3.84-3.86-9.43-5.55-14.8-5.47-14.64-.44-27.95,9.97-31.23,24.18-3.44,13.94,3.86,28.94,16.73,35.16,13.09,6.59,29.63,2.4,38.45-9.22,4.48-5.76,6.82-13.12,6.5-20.43-.15-3.67-.97-7.31-2.37-10.71,7.95,17.98-2.39,39.44-21.35,44.66-13.05,3.76-27.84-1.55-35.7-12.62-16.33-22.85,1.15-53.77,29-52.23,3.74.09,7.5,1.06,10.81,2.82,3.62,1.86,6.21,4.3,6.89,8.48,1.02,7.56-6.2,13.68-11.56,17.89-4.33,3.35-8.22,7.35-11.08,12-2.26,3.81-4.82,9.56-1.09,13.1,2.21,2,5.86,2.19,8.5.78,2.16-1.12,3.75-3.22,4.48-5.52,2.23-7.26-2.4-16.6-5.19-23.32-1.07-2.56-2.21-5.1-2.85-7.81-.38-1.84-.44-3.73-.21-5.6.27-1.91.86-4.12,2.68-5.17,2.01-1.15,4.69.04,5.57,2.12,2.28,5.12-3.2,9.48-7.38,11.27-2.88,1.16-8.15,3.51-9,6.68-.19.76.02,1.55.4,2.23,2.22,3.82,7.97,2.01,11.23.53h0Z"/>
  <g>
    <g>
      <path class="cls-1" d="M72.86,181.49v-.11c0-.58-.37-.85-1.09-.85h-9.59s-.07-.03-.07-.07.03-.07.07-.07h.16c.89,0,1.19-.65,1.19-1.84v-14.44c0-1.19-.3-1.84-1.19-1.84h-.16s-.07-.03-.07-.07.03-.07.07-.07h9.59c.81,0,1.05-.34,1.05-.85,0-.14,0-.21-.01-.38,0-.04.01-.07.07-.07.04,0,.07.01.07.07l.37,5.89c0,.06-.03.07-.07.07-.03,0-.06-.01-.07-.06-.73-2.54-1.94-4.53-4.34-4.53h-1.48c-1.05,0-1.34.65-1.34,1.84v5.21c0,.52.24.57.58.57h1.95c1.6,0,2.75-1.19,2.75-2.61v-.11s.01-.07.07-.07c.04,0,.07.03.07.07v5.58s-.01.07-.07.07-.07-.03-.07-.07v-.11c0-1.43-1.16-2.6-2.75-2.6h-1.95c-.34,0-.58.01-.58.57v7.95c0,1.19.3,1.84,1.34,1.84h1.48c2.68,0,3.76-2.36,4.36-4.97.01-.06.03-.07.07-.07s.07.01.07.07l-.34,6.07c0,.06-.03.07-.07.07-.06,0-.07-.03-.07-.07Z"/>
      <path class="cls-1" d="M86.4,180.65l-8.96-15.99v11.87c0,2.85,1.37,3.87,2.71,3.87h.11s.07.03.07.07-.03.07-.07.07h-5.25s-.07-.03-.07-.07.03-.07.07-.07h.06c1.1,0,2.23-1.27,2.23-3.5v-11.72c0-1.6-.62-2.88-1.78-2.88h-.04s-.07-.03-.07-.07.03-.07.07-.07h3.33s.06,0,.08.04l7.6,13.8v-9.83c0-2.85-1.37-3.87-2.71-3.87h-.11s-.07-.03-.07-.07.03-.07.07-.07h5.25s.07.03.07.07-.03.07-.07.07h-.07c-1.09,0-2.22,1.27-2.22,3.5v14.88s-.03.07-.08.07c-.07,0-.11-.01-.16-.08Z"/>
      <path class="cls-1" d="M99.05,180.65l-8.96-15.99v11.87c0,2.85,1.37,3.87,2.71,3.87h.11s.07.03.07.07-.03.07-.07.07h-5.25s-.07-.03-.07-.07.03-.07.07-.07h.06c1.1,0,2.23-1.27,2.23-3.5v-11.72c0-1.6-.62-2.88-1.78-2.88h-.04s-.07-.03-.07-.07.03-.07.07-.07h3.33s.06,0,.08.04l7.6,13.8v-9.83c0-2.85-1.37-3.87-2.71-3.87h-.11s-.07-.03-.07-.07.03-.07.07-.07h5.25s.07.03.07.07-.03.07-.07.07h-.07c-1.09,0-2.22,1.27-2.22,3.5v14.88s-.03.07-.08.07c-.07,0-.11-.01-.16-.08Z"/>
      <path class="cls-1" d="M103.25,180.46s.03-.07.07-.07h.15c.89,0,1.19-.65,1.19-1.84v-14.44c0-1.19-.3-1.84-1.19-1.84h-.15s-.07-.03-.07-.07.03-.07.07-.07h5.17s.07.03.07.07-.03.07-.07.07h-.16c-.89,0-1.19.65-1.19,1.84v14.44c0,1.19.3,1.84,1.19,1.84h.16s.07.03.07.07-.03.07-.07.07h-5.17s-.07-.03-.07-.07Z"/>
      <path class="cls-1" d="M110.16,171.57c0-5.76,3.96-9.62,9.72-9.62,2.4,0,4.45.76,5.45.76.75,0,1.05-.35,1.05-1.14v-.65s.01-.07.06-.07.07.01.07.07l.35,5.89c0,.06-.03.07-.07.07-.03,0-.06-.01-.07-.06-1.12-2.53-3.36-4.73-6.96-4.73s-7.18,2.99-7.18,8.32c0,5.04,3.26,8.59,7.63,8.59s7.05-2.92,7.05-6.48c0-1.07-.35-1.44-.35-1.74,0-.13.07-.21.17-.21.37,0,.41.96.41,1.54,0,4.01-3.05,8.63-8.69,8.63-5.01,0-8.63-3.98-8.63-9.17Z"/>
      <path class="cls-1" d="M127.07,180.46s.03-.07.07-.07h.06c.75,0,1.85-1.03,3.16-4.03l6.3-14.37s.03-.06.1-.06.08.03.1.06l7.9,16.13c.71,1.43,1.43,2.26,2.33,2.26h.07s.07.03.07.07-.03.07-.07.07h-5.75s-.07-.03-.07-.07.03-.07.07-.07h.06c.71,0,1.03-.25,1.03-.73,0-.3-.13-.71-.35-1.17l-2.85-5.88c-.28-.57-.59-.65-.93-.65h-5.34c-.44,0-.68.24-.9.75l-1.4,3.22c-.42.97-.61,1.81-.61,2.46,0,1.36.75,2.01,1.71,2.01h.13s.07.03.07.07-.03.07-.07.07h-4.8s-.07-.03-.07-.07ZM138.7,171.57c0-.09-.03-.23-.13-.41l-3.04-6.23-2.78,6.34c-.06.13-.08.24-.08.32,0,.18.17.23.4.23h5.23c.23,0,.41-.04.41-.25Z"/>
      <path class="cls-1" d="M60.52,158.97s-.03.07-.07.07h-.17c-.86,0-1.16.65-1.16,1.84v15.65c0,3.59-2.32,5.48-5.09,5.48-2.57,0-4.46-1.76-4.46-4.31,0-.69.18-1.32.48-1.82.11-.19.24-.35.38-.5.19-.14.42-.19.71-.1,1.09.34.48,1.67-.33,2.54-.06.05-.11.1-.15.15,0,0,0,.01-.02.02-.18.24-.28.56-.28,1.01,0,1.36,1.09,2.65,2.85,2.65s3.42-1.29,3.42-4.24v-16.54c0-1.2-.38-1.84-1.63-1.84h-.39s-.07-.03-.07-.07.03-.07.07-.07h5.84s.07.03.07.07Z"/>
    </g>
    <g>
      <path class="cls-1" d="M168.59,171.58c0-5.76,4.31-9.63,9.72-9.63,5.86,0,9.63,3.73,9.63,9.17,0,5.75-4.31,9.62-9.73,9.62-5.86,0-9.62-3.73-9.62-9.15ZM185.19,171.34c0-5.57-2.98-9.25-6.91-9.25s-6.94,3.64-6.94,9.27,2.97,9.24,6.91,9.24,6.94-3.64,6.94-9.25Z"/>
      <path class="cls-1" d="M201.96,174.87c0,3.4-2.74,5.83-6.4,5.83-3.35,0-5.56-2.1-5.95-4.64-.04-.27-.06-.54-.06-.82,0-.71.14-1.36.37-1.92.09-.21.19-.4.3-.58.24-.3.56-.45,1-.32,1.22.35.58,1.77-.3,2.73-.3.34-.46.82-.46,1.48,0,2.09,2.02,3.84,4.56,3.84,2.77,0,4.73-1.91,4.73-4.48s-1.23-3.56-3.42-4.95c-2.92-1.84-4.72-3.2-4.72-5.61,0-1.92,1.5-3.53,3.87-3.53,1.64,0,2.53.69,3.33.69.58,0,.8-.31.8-1.04,0-.27-.01-.45-.03-.68,0-.04.01-.07.07-.07.04,0,.07.01.07.07l.35,5.89c0,.06-.03.07-.07.07s-.06-.01-.07-.06c-.71-2.23-2.45-4.73-4.41-4.73-1.16,0-2.02.85-2.02,2.2,0,1.84,1.34,2.93,3.93,4.52,2.5,1.51,4.51,3.12,4.51,6.09Z"/>
      <path class="cls-1" d="M214.3,181.49v-.11c0-.58-.37-.85-1.09-.85h-9.59s-.07-.03-.07-.07.03-.07.07-.07h.15c.89,0,1.19-.65,1.19-1.84v-14.44c0-1.19-.3-1.84-1.19-1.84h-.15s-.07-.03-.07-.07.03-.07.07-.07h9.59c.81,0,1.05-.34,1.05-.85,0-.14,0-.21-.01-.38,0-.04.01-.07.07-.07.04,0,.07.01.07.07l.37,5.89c0,.06-.03.07-.07.07-.03,0-.06-.01-.07-.06-.73-2.54-1.94-4.53-4.34-4.53h-1.48c-1.05,0-1.34.65-1.34,1.84v5.21c0,.52.24.57.58.57h1.95c1.6,0,2.75-1.19,2.75-2.61v-.11s.01-.07.07-.07c.04,0,.07.03.07.07v5.58s-.01.07-.07.07-.07-.03-.07-.07v-.11c0-1.43-1.16-2.6-2.75-2.6h-1.95c-.34,0-.58.01-.58.57v7.95c0,1.19.3,1.84,1.34,1.84h1.48c2.68,0,3.76-2.36,4.37-4.97.01-.06.03-.07.07-.07s.07.01.07.07l-.34,6.07c0,.06-.03.07-.07.07-.06,0-.07-.03-.07-.07Z"/>
      <path class="cls-1" d="M216.38,180.46s.03-.07.07-.07h.16c.89,0,1.19-.65,1.19-1.84v-14.44c0-1.19-.3-1.84-1.19-1.84h-.16s-.07-.03-.07-.07.03-.07.07-.07h2.57c.83,0,2.63-.07,3.49-.07,3.4,0,7.18,1.09,7.18,5.42,0,3.98-2.83,6.02-6.31,6.02-.79,0-1.45-.14-1.91-.31-.11-.04-.11-.07-.1-.11.01-.03.04-.04.08-.03.47.13.9.18,1.3.18,2.66,0,4.28-2.03,4.28-5.57s-1.78-5.47-4.39-5.47h-.42c-1.45,0-1.93.61-1.93,1.71v14.63c0,1.19.3,1.84,1.16,1.84h.15s.07.03.07.07-.03.07-.07.07h-5.14s-.07-.03-.07-.07Z"/>
      <path class="cls-1" d="M231.29,180.46s.03-.07.07-.07h.16c.89,0,1.19-.65,1.19-1.84v-14.44c0-1.19-.3-1.84-1.19-1.84h-.16s-.07-.03-.07-.07.03-.07.07-.07h5.14s.07.03.07.07-.03.07-.07.07h-.15c-.86,0-1.16.65-1.16,1.84v5.2c0,.54.25.58.59.58h4.87c.35,0,.61-.04.61-.58v-5.2c0-1.19-.3-1.84-1.19-1.84h-.16s-.07-.03-.07-.07.03-.07.07-.07h5.14s.07.03.07.07-.03.07-.07.07h-.15c-.86,0-1.16.65-1.16,1.84v14.44c0,1.19.3,1.84,1.16,1.84h.15s.07.03.07.07-.03.07-.07.07h-5.14s-.07-.03-.07-.07.03-.07.07-.07h.16c.89,0,1.19-.65,1.19-1.84v-7.95c0-.55-.25-.57-.61-.57h-4.87c-.34,0-.59.01-.59.57v7.95c0,1.19.3,1.84,1.16,1.84h.15s.07.03.07.07-.03.07-.07.07h-5.14s-.07-.03-.07-.07Z"/>
      <path class="cls-1" d="M166.99,158.96s-.03.07-.07.07h-.17c-.86,0-1.16.65-1.16,1.84v15.65c0,3.59-2.32,5.48-5.09,5.48-2.57,0-4.46-1.76-4.46-4.31,0-.69.18-1.32.48-1.82.11-.19.24-.35.38-.5.19-.14.42-.19.71-.1,1.09.34.48,1.67-.33,2.54-.06.05-.11.1-.15.15,0,0,0,.01-.02.02-.18.24-.28.56-.28,1.01,0,1.36,1.09,2.65,2.85,2.65s3.42-1.29,3.42-4.24v-16.54c0-1.2-.38-1.84-1.63-1.84h-.39s-.07-.03-.07-.07.03-.07.07-.07h5.84s.07.03.07.07Z"/>
    </g>
  </g>
</svg>