<?xml version="1.0" encoding="UTF-8"?>
<svg id="Pink_Full_Logo" data-name="Pink Full Logo" xmlns="http://www.w3.org/2000/svg" viewBox="0 0 288 288">
  <defs>
    <style>
      .cls-1 {
        fill: #d76481;
      }

      .cls-2 {
        fill: #ecbcc3;
        opacity: .7;
      }
    </style>
  </defs>
  <path class="cls-2" d="M154.93,138.03c-11.3,7.36-30.82,13.7-38.16-2.1-5.11-14.15,13.33-25.37,23.86-30.68,1.41-.72,3.06-1.39,4.38-2.02,2.91-1.46,5.75-3.27,8.31-5.23,3.8-3.01,7.3-6.49,8.4-11.25.45-1.84.39-3.79-.02-5.64-.7-3.25-4.21-5.77-7.55-4.45-6.05,2.85-7.58,13.25-7.83,19.41-.45,10.46,4.13,20.22,8.18,29.61,8.2,18.83,20.05,38.4,20.52,59.47.55,17.74-13.27,34.99-32.54,34.01-6.08-.26-12.27-2.4-17.13-6.63-7.34-6.21-9.81-16.81-7.52-25.86,3.24-13.67,13.14-24.29,23.19-33.31,15.43-14.17,34.71-23.73,47.34-40.7,9.77-12.65,13.43-28.98,2.1-41.9-10.85-10.93-26.68-15.68-41.85-15.47-41.4-1.26-79.05,28.18-88.33,68.39-9.74,39.43,10.91,81.83,47.32,99.44,37,18.63,83.8,6.78,108.73-26.06,12.66-16.29,19.29-37.11,18.37-57.78-.43-10.39-2.74-20.69-6.72-30.3,22.48,50.84-6.76,111.52-60.37,126.29-36.92,10.63-78.73-4.39-100.95-35.68-46.19-64.6,3.26-152.07,82.02-147.71,10.57.26,21.21,2.99,30.57,7.97,10.23,5.25,17.56,12.16,19.5,23.97,2.87,21.38-17.52,38.68-32.68,50.59-12.24,9.48-23.25,20.79-31.35,33.94-6.39,10.77-13.63,27.04-3.07,37.05,6.25,5.65,16.59,6.19,24.05,2.2,6.11-3.17,10.59-9.12,12.67-15.62,6.31-20.52-6.8-46.95-14.69-65.94-3.03-7.24-6.25-14.41-8.07-22.09-1.08-5.21-1.24-10.55-.6-15.84.77-5.41,2.43-11.66,7.57-14.63,5.68-3.25,13.26.11,15.76,6,6.46,14.49-9.04,26.82-20.86,31.86-8.15,3.27-23.04,9.92-25.45,18.89-.53,2.15.05,4.39,1.13,6.3,6.29,10.81,22.54,5.67,31.75,1.5h0Z"/>
  <g>
    <g>
      <path class="cls-1" d="M90.43,176.07c0-4.4,3.02-7.34,7.41-7.34,1.83,0,3.39.58,4.16.58.57,0,.8-.27.8-.87v-.5s.01-.05.04-.05.05.01.05.05l.27,4.49s-.02.05-.05.05c-.02,0-.04-.01-.05-.04-.85-1.93-2.56-3.61-5.31-3.61s-5.47,2.28-5.47,6.35c0,3.85,2.49,6.55,5.82,6.55s5.38-2.23,5.38-4.95c0-.82-.27-1.1-.27-1.33,0-.1.05-.16.13-.16.28,0,.31.73.31,1.17,0,3.06-2.33,6.58-6.63,6.58-3.83,0-6.58-3.04-6.58-6.99Z"/>
      <path class="cls-1" d="M105.64,182.86s.02-.05.05-.05h.12c.68,0,.91-.5.91-1.4v-11.01c0-.91-.23-1.4-.91-1.4h-.12s-.05-.02-.05-.05.02-.05.05-.05h1.96c.64,0,2-.05,2.66-.05,2.59,0,5.45.8,5.45,4.01,0,2.19-1.31,3.56-3.12,4.13l3.34,4.14c.58.72,1.38,1.7,1.91,1.7h.02s.05.02.05.05-.02.05-.05.05h-3s-.04,0-.06-.03l-4.3-5.6h-1.44c-.3,0-.5.01-.5.4v3.73c0,.91.23,1.4.88,1.4h.12s.05.02.05.05-.02.05-.05.05h-3.92s-.05-.02-.05-.05ZM113.75,172.98c0-2.52-1.36-4.04-3.33-4.04h-.32c-1.11,0-1.48.46-1.48,1.3v6.46c0,.41.19.46.51.46h1.25c1.98,0,3.37-1.55,3.37-4.19Z"/>
      <path class="cls-1" d="M128.17,183.64v-.09c0-.44-.28-.65-.83-.65h-7.32s-.05-.02-.05-.05.02-.05.05-.05h.12c.68,0,.91-.5.91-1.4v-11.01c0-.91-.23-1.4-.91-1.4h-.12s-.05-.02-.05-.05.02-.05.05-.05h7.32c.61,0,.8-.26.8-.65,0-.11,0-.16-.01-.29,0-.03.01-.05.05-.05.03,0,.05.01.05.05l.28,4.49s-.02.05-.05.05c-.02,0-.04-.01-.05-.04-.56-1.94-1.48-3.46-3.31-3.46h-1.13c-.8,0-1.02.5-1.02,1.4v3.98c0,.4.18.43.44.43h1.49c1.22,0,2.1-.91,2.1-1.99v-.09s.01-.05.05-.05c.03,0,.05.02.05.05v4.26s-.01.05-.05.05-.05-.02-.05-.05v-.09c0-1.09-.88-1.98-2.1-1.98h-1.49c-.26,0-.44.01-.44.43v6.07c0,.91.23,1.4,1.02,1.4h1.13c2.05,0,2.87-1.8,3.33-3.79.01-.04.02-.05.05-.05s.05.01.05.05l-.26,4.63s-.02.05-.05.05c-.04,0-.05-.02-.05-.05Z"/>
      <path class="cls-1" d="M130.54,182.86s.02-.05.05-.05h.04c.57,0,1.41-.79,2.41-3.07l4.81-10.96s.02-.04.08-.04.06.02.08.04l6.02,12.3c.54,1.09,1.09,1.72,1.78,1.72h.05s.05.02.05.05-.02.05-.05.05h-4.39s-.05-.02-.05-.05.02-.05.05-.05h.04c.54,0,.79-.19.79-.56,0-.23-.1-.54-.27-.89l-2.18-4.48c-.22-.43-.45-.5-.71-.5h-4.07c-.33,0-.52.18-.69.57l-1.07,2.46c-.32.74-.46,1.38-.46,1.87,0,1.03.57,1.53,1.3,1.53h.1s.05.02.05.05-.02.05-.05.05h-3.66s-.05-.02-.05-.05ZM139.41,176.07c0-.06-.02-.17-.1-.31l-2.32-4.75-2.12,4.84c-.04.1-.06.18-.06.25,0,.14.13.17.3.17h3.99c.17,0,.31-.03.31-.19Z"/>
      <path class="cls-1" d="M148.27,182.86s.02-.05.05-.05h.12c.68,0,.91-.5.91-1.4v-11.01c0-1.05-.26-1.4-.79-1.4h-.25c-1.25,0-2.32,1.66-2.79,3.46-.01.03-.03.04-.06.04s-.04-.01-.04-.05l.28-4.49s.02-.05.05-.05c.04,0,.05.02.05.05v.28c-.01.4.19.66.74.66h7.5c.55,0,.75-.26.75-.66v-.28s0-.05.04-.05c.03,0,.05.01.05.05l.28,4.49s-.02.05-.05.05-.04-.01-.05-.04c-.52-1.87-1.54-3.46-2.79-3.46h-.27c-.52,0-.77.36-.77,1.4v11.01c0,.91.23,1.4.88,1.4h.12s.05.02.05.05-.02.05-.05.05h-3.92s-.05-.02-.05-.05Z"/>
      <path class="cls-1" d="M157.18,182.86s.02-.05.05-.05h.12c.68,0,.91-.5.91-1.4v-11.01c0-.91-.23-1.4-.91-1.4h-.12s-.05-.02-.05-.05.02-.05.05-.05h3.94s.05.02.05.05-.02.05-.05.05h-.12c-.68,0-.91.5-.91,1.4v11.01c0,.91.23,1.4.91,1.4h.12s.05.02.05.05-.02.05-.05.05h-3.94s-.05-.02-.05-.05Z"/>
      <path class="cls-1" d="M171.14,183.02l-6.01-12.3c-.55-1.1-1.1-1.72-1.79-1.72h-.05s-.05-.02-.05-.05.02-.05.05-.05h4.39s.05.02.05.05-.02.05-.05.05h-.04c-.53,0-.78.19-.78.56,0,.23.1.54.27.89l5.03,10.35,3.67-8.4c.33-.75.46-1.38.46-1.87,0-1.03-.57-1.53-1.29-1.53h-.11s-.05-.02-.05-.05.02-.05.05-.05h3.66s.05.02.05.05-.02.05-.05.05h-.04c-.57,0-1.41.79-2.41,3.07l-4.81,10.96s-.02.04-.08.04-.06-.02-.08-.04Z"/>
      <path class="cls-1" d="M188.81,183.64v-.09c0-.44-.28-.65-.83-.65h-7.32s-.05-.02-.05-.05.02-.05.05-.05h.12c.68,0,.91-.5.91-1.4v-11.01c0-.91-.23-1.4-.91-1.4h-.12s-.05-.02-.05-.05.02-.05.05-.05h7.32c.61,0,.8-.26.8-.65,0-.11,0-.16-.01-.29,0-.03.01-.05.05-.05.03,0,.05.01.05.05l.28,4.49s-.02.05-.05.05c-.02,0-.04-.01-.05-.04-.56-1.94-1.48-3.46-3.31-3.46h-1.13c-.8,0-1.02.5-1.02,1.4v3.98c0,.4.18.43.44.43h1.49c1.22,0,2.1-.91,2.1-1.99v-.09s.01-.05.05-.05c.03,0,.05.02.05.05v4.26s-.01.05-.05.05-.05-.02-.05-.05v-.09c0-1.09-.88-1.98-2.1-1.98h-1.49c-.26,0-.44.01-.44.43v6.07c0,.91.23,1.4,1.02,1.4h1.13c2.05,0,2.87-1.8,3.33-3.79.01-.04.02-.05.05-.05s.05.01.05.05l-.26,4.63s-.02.05-.05.05c-.04,0-.05-.02-.05-.05Z"/>
    </g>
    <g>
      <g>
        <path class="cls-1" d="M50.66,155.13v-.14c0-.73-.46-1.06-1.36-1.06h-12.02c-.05,0-.09-.04-.09-.09s.04-.09.09-.09h.19c1.12,0,1.49-.81,1.49-2.3v-18.09c0-1.49-.37-2.3-1.49-2.3h-.19c-.05,0-.09-.04-.09-.09s.04-.09.09-.09h12.02c1.01,0,1.31-.42,1.31-1.06,0-.18,0-.27-.02-.48,0-.05.02-.09.09-.09.05,0,.09.02.09.09l.46,7.38c0,.07-.04.09-.09.09-.04,0-.07-.02-.09-.07-.92-3.19-2.43-5.68-5.43-5.68h-1.86c-1.31,0-1.68.81-1.68,2.3v6.53c0,.66.3.71.73.71h2.44c2,0,3.45-1.49,3.45-3.27v-.14c0-.05.02-.09.09-.09.05,0,.09.03.09.09v6.99c0,.05-.02.09-.09.09s-.09-.04-.09-.09v-.14c0-1.79-1.45-3.26-3.45-3.26h-2.44c-.42,0-.73.02-.73.71v9.97c0,1.49.37,2.3,1.68,2.3h1.86c3.36,0,4.71-2.96,5.47-6.23.02-.07.04-.09.09-.09s.09.02.09.09l-.42,7.61c0,.07-.04.09-.09.09-.07,0-.09-.04-.09-.09Z"/>
        <path class="cls-1" d="M67.62,154.07l-11.22-20.04v14.87c0,3.58,1.72,4.85,3.4,4.85h.14c.05,0,.09.04.09.09s-.04.09-.09.09h-6.58c-.05,0-.09-.04-.09-.09s.04-.09.09-.09h.07c1.38,0,2.8-1.59,2.8-4.39v-14.69c0-2-.78-3.61-2.23-3.61h-.05c-.05,0-.09-.04-.09-.09s.04-.09.09-.09h4.18c.05,0,.07,0,.11.05l9.52,17.29v-12.32c0-3.58-1.72-4.85-3.4-4.85h-.14c-.05,0-.09-.04-.09-.09s.04-.09.09-.09h6.58c.05,0,.09.04.09.09s-.04.09-.09.09h-.09c-1.36,0-2.78,1.59-2.78,4.39v18.64c0,.05-.04.09-.11.09-.09,0-.14-.02-.19-.11Z"/>
        <path class="cls-1" d="M83.48,154.07l-11.22-20.04v14.87c0,3.58,1.72,4.85,3.4,4.85h.14c.05,0,.09.04.09.09s-.04.09-.09.09h-6.58c-.05,0-.09-.04-.09-.09s.04-.09.09-.09h.07c1.38,0,2.8-1.59,2.8-4.39v-14.69c0-2-.78-3.61-2.23-3.61h-.05c-.05,0-.09-.04-.09-.09s.04-.09.09-.09h4.18c.05,0,.07,0,.11.05l9.52,17.29v-12.32c0-3.58-1.72-4.85-3.4-4.85h-.14c-.05,0-.09-.04-.09-.09s.04-.09.09-.09h6.58c.05,0,.09.04.09.09s-.04.09-.09.09h-.09c-1.36,0-2.78,1.59-2.78,4.39v18.64c0,.05-.04.09-.11.09-.09,0-.14-.02-.19-.11Z"/>
        <path class="cls-1" d="M88.74,153.83c0-.05.04-.09.09-.09h.19c1.12,0,1.49-.81,1.49-2.3v-18.09c0-1.49-.37-2.3-1.49-2.3h-.19c-.05,0-.09-.04-.09-.09s.04-.09.09-.09h6.48c.05,0,.09.04.09.09s-.04.09-.09.09h-.2c-1.11,0-1.49.81-1.49,2.3v18.09c0,1.49.37,2.3,1.49,2.3h.2c.05,0,.09.04.09.09s-.04.09-.09.09h-6.48c-.05,0-.09-.04-.09-.09Z"/>
        <path class="cls-1" d="M97.39,142.68c0-7.22,4.96-12.06,12.18-12.06,3.01,0,5.58.96,6.83.96.94,0,1.31-.44,1.31-1.43l-.02-.82c0-.05.04-.09.09-.09s.09.02.09.09l.44,7.38c0,.07-.04.09-.09.09-.04,0-.07-.02-.09-.07-1.4-3.17-4.21-5.93-8.73-5.93s-8.99,3.75-8.99,10.43c0,6.32,4.09,10.76,9.56,10.76s8.83-3.66,8.83-8.12c0-1.35-.44-1.81-.44-2.18,0-.16.09-.27.21-.27.46,0,.51,1.2.51,1.93,0,5.03-3.82,10.82-10.89,10.82-6.28,0-10.81-4.99-10.81-11.49Z"/>
        <path class="cls-1" d="M118.59,153.83c0-.05.04-.09.09-.09h.07c.94,0,2.32-1.29,3.97-5.04l7.89-18s.04-.07.12-.07.11.04.12.07l9.89,20.21c.89,1.79,1.79,2.83,2.92,2.83h.09c.05,0,.09.04.09.09s-.04.09-.09.09h-7.2c-.05,0-.09-.04-.09-.09s.04-.09.09-.09h.07c.89,0,1.29-.32,1.29-.92,0-.37-.16-.89-.44-1.47l-3.58-7.36c-.35-.71-.74-.81-1.17-.81h-6.69c-.55,0-.85.3-1.13.94l-1.75,4.04c-.53,1.22-.76,2.27-.76,3.08,0,1.7.94,2.51,2.14,2.51h.16c.05,0,.09.04.09.09s-.04.09-.09.09h-6.02c-.05,0-.09-.04-.09-.09ZM133.16,142.68c0-.11-.04-.28-.16-.51l-3.81-7.81-3.49,7.95c-.07.16-.11.3-.11.41,0,.23.21.28.5.28h6.55c.28,0,.51-.05.51-.32Z"/>
        <path class="cls-1" d="M35.19,126.9c0,.05-.04.09-.09.09h-.22c-1.08,0-1.45.81-1.45,2.3v19.61c0,4.5-2.9,6.87-6.37,6.87-3.22,0-5.59-2.21-5.59-5.4,0-.86.23-1.65.6-2.28.14-.23.3-.44.47-.63.23-.18.53-.24.89-.13,1.37.42.61,2.09-.42,3.19-.07.06-.13.12-.19.19,0,0-.01.02-.02.02-.23.3-.34.71-.34,1.27,0,1.7,1.36,3.33,3.58,3.33s4.29-1.61,4.29-5.31v-20.73c0-1.51-.48-2.3-2.04-2.3h-.49c-.05,0-.09-.03-.09-.09s.03-.09.09-.09h7.31s.09.03.09.09Z"/>
      </g>
      <g>
        <path class="cls-1" d="M170.61,142.7c0-7.22,5.4-12.07,12.18-12.07,7.35,0,12.07,4.67,12.07,11.49,0,7.2-5.4,12.05-12.2,12.05-7.35,0-12.05-4.67-12.05-11.47ZM191.41,142.4c0-6.98-3.73-11.6-8.66-11.6s-8.69,4.57-8.69,11.61,3.72,11.58,8.66,11.58,8.69-4.57,8.69-11.59Z"/>
        <path class="cls-1" d="M212.43,146.83c0,4.26-3.43,7.31-8.02,7.31-4.19,0-6.97-2.64-7.46-5.81-.05-.34-.08-.68-.08-1.03,0-.89.17-1.7.47-2.4.11-.26.24-.5.38-.73.29-.38.7-.56,1.25-.41,1.52.44.73,2.21-.38,3.42-.38.43-.57,1.03-.57,1.85,0,2.62,2.53,4.82,5.72,4.82,3.47,0,5.93-2.39,5.93-5.61s-1.54-4.46-4.29-6.2c-3.66-2.3-5.91-4.02-5.91-7.03,0-2.41,1.88-4.43,4.85-4.43,2.05,0,3.16.87,4.18.87.72,0,1-.39,1-1.31,0-.34-.02-.57-.03-.85,0-.05.02-.09.09-.09.05,0,.09.02.09.09l.44,7.38c0,.07-.03.09-.09.09s-.07-.02-.09-.07c-.89-2.8-3.06-5.93-5.52-5.93-1.45,0-2.53,1.06-2.53,2.76,0,2.3,1.68,3.67,4.92,5.66,3.14,1.89,5.65,3.91,5.65,7.63Z"/>
        <path class="cls-1" d="M227.9,155.13v-.14c0-.73-.46-1.06-1.36-1.06h-12.02c-.05,0-.09-.04-.09-.09s.04-.09.09-.09h.19c1.12,0,1.49-.81,1.49-2.3v-18.09c0-1.49-.37-2.3-1.49-2.3h-.19c-.05,0-.09-.04-.09-.09s.04-.09.09-.09h12.02c1.01,0,1.31-.42,1.31-1.06,0-.18,0-.27-.02-.48,0-.05.02-.09.09-.09.05,0,.09.02.09.09l.46,7.38c0,.07-.04.09-.09.09-.04,0-.07-.02-.09-.07-.92-3.19-2.43-5.68-5.44-5.68h-1.86c-1.31,0-1.68.81-1.68,2.3v6.53c0,.66.3.71.73.71h2.44c2,0,3.45-1.49,3.45-3.27v-.14c0-.05.02-.09.09-.09.05,0,.09.03.09.09v6.99c0,.05-.02.09-.09.09s-.09-.04-.09-.09v-.14c0-1.79-1.45-3.26-3.45-3.26h-2.44c-.42,0-.73.02-.73.71v9.97c0,1.49.37,2.3,1.68,2.3h1.86c3.36,0,4.71-2.96,5.47-6.23.02-.07.04-.09.09-.09s.09.02.09.09l-.42,7.61c0,.07-.04.09-.09.09-.07,0-.09-.04-.09-.09Z"/>
        <path class="cls-1" d="M230.51,153.83c0-.05.04-.09.09-.09h.2c1.11,0,1.49-.81,1.49-2.3v-18.09c0-1.49-.37-2.3-1.49-2.3h-.2c-.05,0-.09-.04-.09-.09s.04-.09.09-.09h3.22c1.05,0,3.29-.09,4.37-.09,4.27,0,8.99,1.36,8.99,6.8,0,4.99-3.54,7.54-7.91,7.54-.99,0-1.82-.18-2.39-.39-.14-.05-.14-.09-.12-.14.02-.04.05-.05.11-.04.58.16,1.13.23,1.63.23,3.33,0,5.36-2.55,5.36-6.97s-2.23-6.85-5.51-6.85h-.53c-1.82,0-2.42.76-2.42,2.14v18.34c0,1.49.37,2.3,1.45,2.3h.19c.05,0,.09.04.09.09s-.04.09-.09.09h-6.44c-.05,0-.09-.04-.09-.09Z"/>
        <path class="cls-1" d="M249.18,153.83c0-.05.04-.09.09-.09h.2c1.11,0,1.49-.81,1.49-2.3v-18.09c0-1.49-.37-2.3-1.49-2.3h-.2c-.05,0-.09-.04-.09-.09s.04-.09.09-.09h6.44c.05,0,.09.04.09.09s-.04.09-.09.09h-.19c-1.08,0-1.45.81-1.45,2.3v6.51c0,.67.32.72.74.72h6.11c.44,0,.76-.05.76-.72v-6.51c0-1.49-.37-2.3-1.49-2.3h-.2c-.05,0-.09-.04-.09-.09s.04-.09.09-.09h6.44c.05,0,.09.04.09.09s-.04.09-.09.09h-.19c-1.08,0-1.45.81-1.45,2.3v18.09c0,1.49.37,2.3,1.45,2.3h.19c.05,0,.09.04.09.09s-.04.09-.09.09h-6.44c-.05,0-.09-.04-.09-.09s.04-.09.09-.09h.2c1.11,0,1.49-.81,1.49-2.3v-9.97c0-.69-.32-.71-.76-.71h-6.11c-.42,0-.74.02-.74.71v9.97c0,1.49.37,2.3,1.45,2.3h.19c.05,0,.09.04.09.09s-.04.09-.09.09h-6.44c-.05,0-.09-.04-.09-.09Z"/>
        <path class="cls-1" d="M168.61,126.89c0,.05-.04.09-.09.09h-.22c-1.08,0-1.45.81-1.45,2.3v19.61c0,4.5-2.9,6.87-6.37,6.87-3.22,0-5.59-2.21-5.59-5.4,0-.86.23-1.65.6-2.28.14-.23.3-.44.47-.63.23-.18.53-.24.89-.13,1.37.42.61,2.09-.42,3.19-.07.06-.13.12-.19.19,0,0-.01.02-.02.02-.23.3-.34.71-.34,1.27,0,1.7,1.36,3.33,3.58,3.33s4.29-1.61,4.29-5.31v-20.73c0-1.51-.48-2.3-2.04-2.3h-.49c-.05,0-.09-.03-.09-.09s.03-.09.09-.09h7.31s.09.03.09.09Z"/>
      </g>
    </g>
  </g>
</svg>